<svg width="16" height="16" viewBox="0 0 16 16" fill="none" xmlns="http://www.w3.org/2000/svg">
    <g clip-path="url(#clip0_207_21334)">
        <path fill-rule="evenodd" clip-rule="evenodd" d="M5.3145 2.8569C6.39076 1.54487 7.87526 0.589981 9.56758 0.199004C9.00718 0.067425 8.42452 -0.000244141 7.8233 -0.000244141C3.50341 -0.000244141 0 3.5787 0 7.996C0 11.3494 2.01892 14.2216 4.88028 15.4095C5.79696 15.793 6.799 16.0035 7.84928 16.0035C12.1729 16.0035 15.68 12.4434 15.68 8.04863C15.68 8.04111 15.68 8.03359 15.68 8.02983C15.68 8.02231 15.68 8.01479 15.68 8.01103C15.68 8.00352 15.68 7.996 15.68 7.98848V7.98472C15.68 7.9772 15.68 7.97344 15.68 7.96592C15.68 5.07118 14.1547 2.53359 11.876 1.14637C11.9873 1.36066 12.0875 1.58246 12.1803 1.81179C12.1766 1.8193 12.1803 1.82682 12.1914 1.84186C12.3955 2.35314 12.5477 2.88697 12.6405 3.44337C12.7593 4.91705 12.6108 6.99224 11.8686 7.99224C11.8686 7.99224 12.7593 2.85314 9.97953 0.53359C9.87191 0.499756 9.94051 0.470344 9.94051 0.470344C9.94051 0.470344 9.12595 3.7366 8.55812 5.14637C7.89381 3.93585 6.70993 3.06743 5.3145 2.8569Z" fill="#CFD1D5"/>
        <path d="M5.01518 10.9752C7.35568 10.9752 9.25302 9.03912 9.25302 6.65086C9.25302 4.2626 7.35568 2.32654 5.01518 2.32654C2.67469 2.32654 0.777344 4.2626 0.777344 6.65086C0.777344 9.03912 2.67469 10.9752 5.01518 10.9752Z" fill="#111111"/>
        <path fill-rule="evenodd" clip-rule="evenodd" d="M4.88278 4.03923C5.41349 3.8663 6.0444 3.66329 6.9017 4.26855C8.11528 5.12569 8.3862 6.1069 8.34166 6.29111C8.32682 6.35126 8.1227 6.25351 7.83322 6.11442C7.25798 5.83998 6.3413 5.40013 5.90338 5.7272C5.24649 6.21968 5.81802 6.5881 6.35986 6.81366C8.53094 7.71592 8.14497 8.52795 8.14497 8.52795C8.14497 8.52795 7.47694 10.9189 4.55991 11.0204C1.64287 10.9189 0.974844 8.52795 0.974844 8.52795C0.974844 8.52795 0.592586 7.71216 2.76366 6.81366C3.30551 6.5881 3.87704 6.21968 3.22015 5.7272C2.78222 5.40013 1.86554 5.83998 1.2903 6.11442C1.00082 6.25351 0.796704 6.35126 0.781859 6.29111C0.737324 6.11066 1.00824 5.12945 2.22182 4.26855C3.07912 3.65953 3.71374 3.8663 4.24074 4.03923C4.35208 4.07682 4.4597 4.11066 4.56362 4.13697C4.66382 4.1069 4.77145 4.07306 4.88278 4.03923Z" fill="#CFD1D5"/>
        <path fill-rule="evenodd" clip-rule="evenodd" d="M5.46957 7.4401C5.18752 7.07168 4.6197 7.10175 4.59743 7.10175C4.59743 7.10175 4.01105 7.06416 3.72529 7.4401C3.44323 7.80852 4.56032 8.39874 4.59743 8.4213C4.59743 8.4213 5.75534 7.81604 5.46957 7.4401Z" fill="#111111"/>
        <path fill-rule="evenodd" clip-rule="evenodd" d="M4.59198 8.31571C4.53631 8.31571 3.46747 8.27436 2.63987 7.84579C2.55822 7.80444 2.48399 7.9097 2.54709 7.97361C2.93677 8.3721 3.63819 8.90218 4.59569 8.90218C5.55319 8.90218 6.25462 8.3721 6.6443 7.97361C6.70739 7.9097 6.63316 7.80444 6.55152 7.84579C5.72391 8.27436 4.65507 8.31195 4.5994 8.31571C4.59569 8.31571 4.59569 8.31571 4.59198 8.31571Z" fill="#111111"/>
        <path d="M5.90625 2.28564C6.61898 2.5627 8.18698 3.40772 8.75716 4.57136" stroke="#CFD1D5" stroke-width="0.361069"/>
    </g>
    <defs>
        <clipPath id="clip0_207_21334">
            <rect width="15.68" height="16" fill="white"/>
        </clipPath>
    </defs>
</svg>
